<svg version="1.2" xmlns="http://www.w3.org/2000/svg" viewBox="0 0 1744 524"><style>.a{fill:#090909}.b{fill:#fefefe}</style><path class="a" d="m37.5 243.5c0 0 39.9-17.8 79-37 37.6-18.6 74.5-38.5 74.5-38.5l-30.5-19.5 32.5-7-16.3-15c0 0 86.6-24.4 173.8-46.5 120.2-30.5 241.5-57 241.5-57l30 39 19-4 70 69 755-62 20 184 109.5-93 9.5 10 17.5-13 101 130.5-223.5 81.5 16.5 127.5c0 0 2.1 20-7.8 27.7-5.5 4.4-15.7 3.8-15.7 3.8 0 0-226-25.4-452-50.1-209-22.8-209.4-19.2-418-45-122.2-15.1-244-32.9-244-32.9l-58.5 40.5-102-79.5-14.5 14c0 0-9 7.2-17.5 6.7-9.1-0.5-17.5-9.7-17.5-9.7l-105.5-95.5c0 0-9.4-5.8-11.5-13.5-2-7.4 2.5-16.5 2.5-16.5z"/><path class="b" d="m63.7 235.3l148.3-79.3-34-29c0 0 56.2-15.7 112.7-30.4 149.9-38.8 301-73.6 301-73.6l66.3 85-382 70 4 15 17-2-11 26-1-5z"/><path class="b" d="m84 242l-29 1c-8 13.6 0 21.6 0 21.6-10.7-12.7 88.9 80.8 110 100.4 20.6 19.2 33.8 9.2 36.7 7 2.8-2.3 17.3-15 17.3-15l91 72c8 6.6 22-0.7 22-0.7-9.3 7.7 46-32.3 46-32.3 0 0 113 16.7 226.2 30.9 216 27 232 16.5 422.6 35.9 13 1.3 452.2 54.9 464.7 55.5 12.5 0.7 26.5-11.3 24.8-25.4-1.7-14-15.3-127.9-15.3-127.9l-22 7 15 124-414.5-51.5-430.5-35.9-277-35.6-49 35-104.4-80.7-29.6 26.7-113-101 89 20 19-40-26 2-6 13-31-8-36 5z"/><path class="b" d="m1355 399l123.7-45.7 211.6-70-95.3-127.3-273 234z"/><path class="b" d="m1487 265l-19 11-3-9-19-156-377.3 15.3-458 41-181.7 6.7 276.7-36.7 297-28.7 112-7c0 0 306.7-11.9 328.3-13.6 17.3-1.4 25.7 11 27 22 0.7 5.9 16 140 16 140z"/><path class="b" d="m1467 66l-825-7m-445.3 172l65.3 39 21-47-26 3-5.7 12-14.3-10z"/></svg>